<?xml version="1.0" encoding="utf-8"?>
<!-- Generator: Adobe Illustrator 21.0.2, SVG Export Plug-In . SVG Version: 6.00 Build 0)  -->
<svg version="1.1" id="Layer_1" xmlns="http://www.w3.org/2000/svg" xmlns:xlink="http://www.w3.org/1999/xlink" x="0px" y="0px"
	 viewBox="0 0 720 720" style="enable-background:new 0 0 720 720;" xml:space="preserve">
<style type="text/css">
	.st0{fill:#F2D748;}
</style>
<g>
	<path class="st0" d="M328.5,249.9c-42.9,36.6-85.6,73.2-128.9,110.1c43.2,36.7,86.2,73.2,129.2,109.7
		c-38,50.1-109.9,81.2-184.1,61.5C66.9,510.5,13.1,440.6,13,360.4c-0.1-80.7,53.5-148.6,126.8-170.2
		C217.7,167.3,291.1,200.9,328.5,249.9z"/>
	<path class="st0" d="M395,319.3c20,0,36.3,16.5,36.2,36.6c-0.1,19.8-16.5,36-36.4,36c-20,0-36.3-16.5-36.2-36.6
		C358.6,335.5,375,319.3,395,319.3z"/>
	<path class="st0" d="M533,319.3c20,0.1,36.2,16.6,36,36.7c-0.2,19.8-16.6,35.9-36.6,35.8c-20-0.1-36.2-16.6-36-36.7
		C496.6,335.4,513.1,319.3,533,319.3z"/>
	<path class="st0" d="M670.6,391.9c-20,0-36.3-16.5-36.2-36.6c0.1-19.8,16.5-36,36.4-36c20,0,36.3,16.5,36.2,36.6
		C706.9,375.8,690.5,392,670.6,391.9z"/>
</g>
</svg>
